<?xml version="1.0" encoding="UTF-8" standalone="no"?>
<!DOCTYPE svg PUBLIC "-//W3C//DTD SVG 1.1//EN"
 "http://www.w3.org/Graphics/SVG/1.1/DTD/svg11.dtd">
<!-- Generated by graphviz version 8.0.2 (20230410.1723)
 -->
<!-- Pages: 1 -->
<svg width="267pt" height="189pt"
 viewBox="0.00 0.00 267.09 189.00" xmlns="http://www.w3.org/2000/svg" xmlns:xlink="http://www.w3.org/1999/xlink">
<g id="graph0" class="graph" transform="scale(1 1) rotate(0) translate(4 185)">
<polygon fill="none" stroke="none" points="-4,4 -4,-185 263.09,-185 263.09,4 -4,4"/>
<!-- L1 -->
<g id="node1" class="node">
<title>L1</title>
<polygon fill="none" stroke="black" points="35.9,-144.5 35.9,-180.5 118.9,-180.5 118.9,-144.5 35.9,-144.5"/>
<text text-anchor="middle" x="77.4" y="-158.8" font-family="Comic Sans MS" font-size="14.00">Language1</text>
</g>
<!-- VM -->
<g id="node6" class="node">
<title>VM</title>
<ellipse fill="none" stroke="black" cx="128.4" cy="-90" rx="27" ry="18"/>
<text text-anchor="middle" x="128.4" y="-86.3" font-family="Comic Sans MS" font-size="14.00">VM</text>
</g>
<!-- L1&#45;&gt;VM -->
<g id="edge1" class="edge">
<title>L1&#45;&gt;VM</title>
<path fill="none" stroke="black" d="M89.48,-144.79C95.82,-136.03 103.71,-125.13 110.72,-115.44"/>
<polygon fill="black" stroke="black" points="114.07,-117.78 117.1,-107.62 108.4,-113.67 114.07,-117.78"/>
</g>
<!-- L2 -->
<g id="node2" class="node">
<title>L2</title>
<polygon fill="none" stroke="black" points="136.9,-144.5 136.9,-180.5 221.9,-180.5 221.9,-144.5 136.9,-144.5"/>
<text text-anchor="middle" x="179.4" y="-158.8" font-family="Comic Sans MS" font-size="14.00">Language2</text>
</g>
<!-- L2&#45;&gt;VM -->
<g id="edge2" class="edge">
<title>L2&#45;&gt;VM</title>
<path fill="none" stroke="black" d="M167.31,-144.79C160.97,-136.03 153.09,-125.13 146.07,-115.44"/>
<polygon fill="black" stroke="black" points="148.39,-113.67 139.7,-107.62 142.72,-117.78 148.39,-113.67"/>
</g>
<!-- A1 -->
<g id="node3" class="node">
<title>A1</title>
<ellipse fill="none" stroke="black" cx="36.4" cy="-18" rx="36.29" ry="18"/>
<text text-anchor="middle" x="36.4" y="-14.3" font-family="Comic Sans MS" font-size="14.00">Arch1</text>
</g>
<!-- A2 -->
<g id="node4" class="node">
<title>A2</title>
<ellipse fill="none" stroke="black" cx="128.4" cy="-18" rx="37.89" ry="18"/>
<text text-anchor="middle" x="128.4" y="-14.3" font-family="Comic Sans MS" font-size="14.00">Arch2</text>
</g>
<!-- A3 -->
<g id="node5" class="node">
<title>A3</title>
<ellipse fill="none" stroke="black" cx="221.4" cy="-18" rx="37.89" ry="18"/>
<text text-anchor="middle" x="221.4" y="-14.3" font-family="Comic Sans MS" font-size="14.00">Arch3</text>
</g>
<!-- VM&#45;&gt;A1 -->
<g id="edge3" class="edge">
<title>VM&#45;&gt;A1</title>
<path fill="none" stroke="black" d="M111.09,-75.83C97.86,-65.77 79.37,-51.69 64.09,-40.07"/>
<polygon fill="black" stroke="black" points="66.61,-36.83 56.53,-33.56 62.37,-42.4 66.61,-36.83"/>
</g>
<!-- VM&#45;&gt;A2 -->
<g id="edge4" class="edge">
<title>VM&#45;&gt;A2</title>
<path fill="none" stroke="black" d="M128.4,-71.7C128.4,-64.24 128.4,-55.32 128.4,-46.97"/>
<polygon fill="black" stroke="black" points="131.9,-47.1 128.4,-37.1 124.9,-47.1 131.9,-47.1"/>
</g>
<!-- VM&#45;&gt;A3 -->
<g id="edge5" class="edge">
<title>VM&#45;&gt;A3</title>
<path fill="none" stroke="black" d="M145.89,-75.83C159.17,-65.84 177.71,-51.88 193.1,-40.3"/>
<polygon fill="black" stroke="black" points="194.84,-42.61 200.73,-33.8 190.63,-37.02 194.84,-42.61"/>
</g>
</g>
</svg>
