<?xml version="1.0" encoding="UTF-8" standalone="no"?>
<!DOCTYPE svg PUBLIC "-//W3C//DTD SVG 1.1//EN"
 "http://www.w3.org/Graphics/SVG/1.1/DTD/svg11.dtd">
<!-- Generated by graphviz version 8.0.2 (20230410.1723)
 -->
<!-- Pages: 1 -->
<svg width="267pt" height="117pt"
 viewBox="0.00 0.00 267.09 117.00" xmlns="http://www.w3.org/2000/svg" xmlns:xlink="http://www.w3.org/1999/xlink">
<g id="graph0" class="graph" transform="scale(1 1) rotate(0) translate(4 113)">
<polygon fill="none" stroke="none" points="-4,4 -4,-113 263.09,-113 263.09,4 -4,4"/>
<!-- L1 -->
<g id="node1" class="node">
<title>L1</title>
<polygon fill="none" stroke="black" points="35.9,-72.5 35.9,-108.5 118.9,-108.5 118.9,-72.5 35.9,-72.5"/>
<text text-anchor="middle" x="77.4" y="-86.8" font-family="Comic Sans MS" font-size="14.00">Language1</text>
</g>
<!-- A1 -->
<g id="node3" class="node">
<title>A1</title>
<ellipse fill="none" stroke="black" cx="36.4" cy="-18" rx="36.29" ry="18"/>
<text text-anchor="middle" x="36.4" y="-14.3" font-family="Comic Sans MS" font-size="14.00">Arch1</text>
</g>
<!-- L1&#45;&gt;A1 -->
<g id="edge1" class="edge">
<title>L1&#45;&gt;A1</title>
<path fill="none" stroke="black" d="M67.68,-72.79C62.83,-64.45 56.85,-54.17 51.43,-44.85"/>
<polygon fill="black" stroke="black" points="54.1,-43.47 46.04,-36.59 48.05,-46.99 54.1,-43.47"/>
</g>
<!-- A2 -->
<g id="node4" class="node">
<title>A2</title>
<ellipse fill="none" stroke="black" cx="128.4" cy="-18" rx="37.89" ry="18"/>
<text text-anchor="middle" x="128.4" y="-14.3" font-family="Comic Sans MS" font-size="14.00">Arch2</text>
</g>
<!-- L1&#45;&gt;A2 -->
<g id="edge2" class="edge">
<title>L1&#45;&gt;A2</title>
<path fill="none" stroke="black" d="M89.48,-72.79C95.73,-64.15 103.49,-53.43 110.42,-43.85"/>
<polygon fill="black" stroke="black" points="113.72,-46.26 116.75,-36.1 108.05,-42.15 113.72,-46.26"/>
</g>
<!-- A3 -->
<g id="node5" class="node">
<title>A3</title>
<ellipse fill="none" stroke="black" cx="221.4" cy="-18" rx="37.89" ry="18"/>
<text text-anchor="middle" x="221.4" y="-14.3" font-family="Comic Sans MS" font-size="14.00">Arch3</text>
</g>
<!-- L1&#45;&gt;A3 -->
<g id="edge3" class="edge">
<title>L1&#45;&gt;A3</title>
<path fill="none" stroke="black" d="M111.89,-72.61C134.26,-61.66 163.33,-47.43 185.89,-36.38"/>
<polygon fill="black" stroke="black" points="187.31,-39.09 194.75,-31.55 184.23,-32.81 187.31,-39.09"/>
</g>
<!-- L2 -->
<g id="node2" class="node">
<title>L2</title>
<polygon fill="none" stroke="black" points="136.9,-72.5 136.9,-108.5 221.9,-108.5 221.9,-72.5 136.9,-72.5"/>
<text text-anchor="middle" x="179.4" y="-86.8" font-family="Comic Sans MS" font-size="14.00">Language2</text>
</g>
<!-- L2&#45;&gt;A1 -->
<g id="edge4" class="edge">
<title>L2&#45;&gt;A1</title>
<path fill="none" stroke="black" d="M145.14,-72.61C122.79,-61.59 93.69,-47.25 71.22,-36.17"/>
<polygon fill="black" stroke="black" points="72.93,-32.62 62.41,-31.33 69.83,-38.89 72.93,-32.62"/>
</g>
<!-- L2&#45;&gt;A2 -->
<g id="edge5" class="edge">
<title>L2&#45;&gt;A2</title>
<path fill="none" stroke="black" d="M167.31,-72.79C161.06,-64.15 153.31,-53.43 146.37,-43.85"/>
<polygon fill="black" stroke="black" points="148.74,-42.15 140.05,-36.1 143.07,-46.26 148.74,-42.15"/>
</g>
<!-- L2&#45;&gt;A3 -->
<g id="edge6" class="edge">
<title>L2&#45;&gt;A3</title>
<path fill="none" stroke="black" d="M189.35,-72.79C194.32,-64.45 200.44,-54.17 206,-44.85"/>
<polygon fill="black" stroke="black" points="209.4,-46.97 211.51,-36.59 203.39,-43.39 209.4,-46.97"/>
</g>
</g>
</svg>
