<?xml version="1.0" encoding="UTF-8" standalone="no"?>
<!DOCTYPE svg PUBLIC "-//W3C//DTD SVG 1.1//EN"
 "http://www.w3.org/Graphics/SVG/1.1/DTD/svg11.dtd">
<!-- Generated by graphviz version 8.0.5 (20230430.1635)
 -->
<!-- Pages: 1 -->
<svg width="309pt" height="264pt"
 viewBox="0.00 0.00 308.74 263.95" xmlns="http://www.w3.org/2000/svg" xmlns:xlink="http://www.w3.org/1999/xlink">
<g id="graph0" class="graph" transform="scale(1 1) rotate(0) translate(4 259.95)">
<polygon fill="none" stroke="none" points="-4,4 -4,-259.95 304.74,-259.95 304.74,4 -4,4"/>
<!-- wood -->
<g id="node1" class="node">
<title>wood</title>
<ellipse fill="none" stroke="black" cx="129.45" cy="-235.98" rx="34.65" ry="19.98"/>
<text text-anchor="middle" x="129.45" y="-232.8" font-family="Comic Sans MS" font-size="14.00">wood</text>
</g>
<!-- planks -->
<g id="node2" class="node">
<title>planks</title>
<ellipse fill="none" stroke="black" cx="237.45" cy="-163.98" rx="39.95" ry="19.98"/>
<text text-anchor="middle" x="237.45" y="-160.8" font-family="Comic Sans MS" font-size="14.00">planks</text>
</g>
<!-- wood&#45;&gt;planks -->
<g id="edge1" class="edge">
<title>wood&#45;&gt;planks</title>
<path fill="none" stroke="black" d="M152.36,-220.71C167.4,-210.68 187.33,-197.39 204.13,-186.19"/>
<polygon fill="black" stroke="black" points="205.7,-188.68 212.08,-180.22 201.82,-182.86 205.7,-188.68"/>
</g>
<!-- tapered leg -->
<g id="node3" class="node">
<title>tapered leg</title>
<ellipse fill="none" stroke="black" cx="129.45" cy="-19.98" rx="64.35" ry="19.98"/>
<text text-anchor="middle" x="129.45" y="-16.8" font-family="Comic Sans MS" font-size="14.00">tapered leg</text>
</g>
<!-- wood&#45;&gt;tapered leg -->
<g id="edge2" class="edge">
<title>wood&#45;&gt;tapered leg</title>
<path fill="none" stroke="black" d="M129.45,-215.66C129.45,-177.78 129.45,-96.19 129.45,-51.25"/>
<polygon fill="black" stroke="black" points="132.95,-51.4 129.45,-41.4 125.95,-51.4 132.95,-51.4"/>
</g>
<!-- shavehorse -->
<g id="node4" class="node">
<title>shavehorse</title>
<ellipse fill="none" stroke="black" cx="237.45" cy="-91.98" rx="63.29" ry="19.98"/>
<text text-anchor="middle" x="237.45" y="-88.8" font-family="Comic Sans MS" font-size="14.00">shavehorse</text>
</g>
<!-- planks&#45;&gt;shavehorse -->
<g id="edge3" class="edge">
<title>planks&#45;&gt;shavehorse</title>
<path fill="none" stroke="black" d="M237.45,-143.54C237.45,-137.17 237.45,-130.01 237.45,-123.09"/>
<polygon fill="black" stroke="black" points="240.95,-123.22 237.45,-113.22 233.95,-123.22 240.95,-123.22"/>
</g>
<!-- tapered leg&#45;&gt;shavehorse -->
<g id="edge5" class="edge">
<title>tapered leg&#45;&gt;shavehorse</title>
<path fill="none" stroke="black" d="M148.23,-39.16C160.4,-48.59 176.76,-59.92 192.16,-69.7"/>
<polygon fill="black" stroke="black" points="189.74,-72.94 200.08,-75.26 193.44,-67 189.74,-72.94"/>
</g>
<!-- shavehorse&#45;&gt;tapered leg -->
<g id="edge6" class="edge">
<title>shavehorse&#45;&gt;tapered leg</title>
<path fill="none" stroke="black" d="M218.67,-72.79C206.5,-63.36 190.14,-52.04 174.74,-42.25"/>
<polygon fill="black" stroke="black" points="177.17,-39.01 166.83,-36.69 173.46,-44.95 177.17,-39.01"/>
<text text-anchor="middle" x="224.53" y="-44.05" font-family="Times,serif" font-size="14.00">efficiency+1</text>
</g>
<!-- drawknife -->
<g id="node5" class="node">
<title>drawknife</title>
<ellipse fill="none" stroke="black" cx="57.45" cy="-91.98" rx="57.45" ry="19.98"/>
<text text-anchor="middle" x="57.45" y="-88.8" font-family="Comic Sans MS" font-size="14.00">drawknife</text>
</g>
<!-- drawknife&#45;&gt;tapered leg -->
<g id="edge4" class="edge">
<title>drawknife&#45;&gt;tapered leg</title>
<path fill="none" stroke="black" d="M76.75,-72.68C84.66,-64.77 93.95,-55.48 102.51,-46.92"/>
<polygon fill="black" stroke="black" points="104.51,-49.87 109.1,-40.32 99.56,-44.92 104.51,-49.87"/>
</g>
</g>
</svg>
