<?xml version="1.0" encoding="UTF-8" standalone="no"?>
<!DOCTYPE svg PUBLIC "-//W3C//DTD SVG 1.1//EN"
 "http://www.w3.org/Graphics/SVG/1.1/DTD/svg11.dtd">
<!-- Generated by graphviz version 8.0.5 (20230430.1635)
 -->
<!-- Pages: 1 -->
<svg width="289pt" height="428pt"
 viewBox="0.00 0.00 288.66 427.71" xmlns="http://www.w3.org/2000/svg" xmlns:xlink="http://www.w3.org/1999/xlink">
<g id="graph0" class="graph" transform="scale(1 1) rotate(0) translate(4 423.71)">
<polygon fill="none" stroke="none" points="-4,4 -4,-423.71 284.66,-423.71 284.66,4 -4,4"/>
<!-- wood -->
<g id="node1" class="node">
<title>wood</title>
<ellipse fill="none" stroke="black" cx="212.54" cy="-399.73" rx="34.65" ry="19.98"/>
<text text-anchor="middle" x="212.54" y="-396.56" font-family="Comic Sans MS" font-size="14.00">wood</text>
</g>
<!-- planks -->
<g id="node2" class="node">
<title>planks</title>
<ellipse fill="none" stroke="black" cx="178.54" cy="-323.78" rx="39.95" ry="19.98"/>
<text text-anchor="middle" x="178.54" y="-320.61" font-family="Comic Sans MS" font-size="14.00">planks</text>
</g>
<!-- wood&#45;&gt;planks -->
<g id="edge1" class="edge">
<title>wood&#45;&gt;planks</title>
<path fill="none" stroke="black" d="M203.96,-380.07C200.29,-372.08 195.91,-362.55 191.83,-353.68"/>
<polygon fill="black" stroke="black" points="194.6,-352.32 187.24,-344.69 188.24,-355.24 194.6,-352.32"/>
</g>
<!-- stick -->
<g id="node3" class="node">
<title>stick</title>
<ellipse fill="none" stroke="black" cx="246.54" cy="-247.83" rx="34.12" ry="19.98"/>
<text text-anchor="middle" x="246.54" y="-244.66" font-family="Comic Sans MS" font-size="14.00">stick</text>
</g>
<!-- wood&#45;&gt;stick -->
<g id="edge2" class="edge">
<title>wood&#45;&gt;stick</title>
<path fill="none" stroke="black" d="M218.07,-379.73C221.06,-369.18 224.7,-355.79 227.54,-343.76 232.66,-322.12 237.56,-297.49 241.1,-278.75"/>
<polygon fill="black" stroke="black" points="244.68,-279.66 243.07,-269.19 237.8,-278.37 244.68,-279.66"/>
</g>
<!-- crafting table -->
<g id="node4" class="node">
<title>crafting table</title>
<ellipse fill="none" stroke="black" cx="76.54" cy="-247.83" rx="76.54" ry="19.98"/>
<text text-anchor="middle" x="76.54" y="-244.66" font-family="Comic Sans MS" font-size="14.00">crafting table</text>
</g>
<!-- planks&#45;&gt;crafting table -->
<g id="edge3" class="edge">
<title>planks&#45;&gt;crafting table</title>
<path fill="none" stroke="black" d="M156.41,-306.74C142.89,-296.93 125.34,-284.21 110.13,-273.18"/>
<polygon fill="black" stroke="black" points="112.65,-269.96 102.5,-266.92 108.54,-275.63 112.65,-269.96"/>
</g>
<!-- wood pickaxe -->
<g id="node5" class="node">
<title>wood pickaxe</title>
<ellipse fill="none" stroke="black" cx="177.54" cy="-171.88" rx="72.83" ry="19.98"/>
<text text-anchor="middle" x="177.54" y="-168.7" font-family="Comic Sans MS" font-size="14.00">wood pickaxe</text>
</g>
<!-- planks&#45;&gt;wood pickaxe -->
<g id="edge5" class="edge">
<title>planks&#45;&gt;wood pickaxe</title>
<path fill="none" stroke="black" d="M178.42,-303.49C178.25,-277.97 177.94,-232.72 177.74,-202.76"/>
<polygon fill="black" stroke="black" points="181.24,-203.07 177.67,-193.1 174.24,-203.12 181.24,-203.07"/>
</g>
<!-- stick&#45;&gt;wood pickaxe -->
<g id="edge6" class="edge">
<title>stick&#45;&gt;wood pickaxe</title>
<path fill="none" stroke="black" d="M230.54,-229.68C222.18,-220.72 211.77,-209.56 202.4,-199.51"/>
<polygon fill="black" stroke="black" points="205.54,-197.68 196.16,-192.76 200.42,-202.45 205.54,-197.68"/>
</g>
<!-- stone pickaxe -->
<g id="node7" class="node">
<title>stone pickaxe</title>
<ellipse fill="none" stroke="black" cx="177.54" cy="-19.98" rx="74.95" ry="19.98"/>
<text text-anchor="middle" x="177.54" y="-16.8" font-family="Comic Sans MS" font-size="14.00">stone pickaxe</text>
</g>
<!-- stick&#45;&gt;stone pickaxe -->
<g id="edge9" class="edge">
<title>stick&#45;&gt;stone pickaxe</title>
<path fill="none" stroke="black" d="M253.12,-227.75C258.85,-208.46 265.39,-177.87 259.54,-151.9 250.49,-111.64 222.7,-72.48 201.96,-47.64"/>
<polygon fill="black" stroke="black" points="204.13,-45.79 194.97,-40.48 198.81,-50.35 204.13,-45.79"/>
</g>
<!-- crafting table&#45;&gt;wood pickaxe -->
<g id="edge4" class="edge">
<title>crafting table&#45;&gt;wood pickaxe</title>
<path fill="none" stroke="black" d="M101.51,-228.55C114.35,-219.15 130.19,-207.55 144.07,-197.39"/>
<polygon fill="black" stroke="black" points="145.86,-199.68 151.87,-190.95 141.73,-194.03 145.86,-199.68"/>
</g>
<!-- crafting table&#45;&gt;stone pickaxe -->
<g id="edge8" class="edge">
<title>crafting table&#45;&gt;stone pickaxe</title>
<path fill="none" stroke="black" d="M78.99,-227.56C81.78,-208.13 87.08,-177.43 95.54,-151.9 107.3,-116.44 111.4,-107.41 131.54,-75.95 137.79,-66.21 145.56,-56.29 152.94,-47.6"/>
<polygon fill="black" stroke="black" points="156.17,-50.22 160.11,-40.39 150.89,-45.62 156.17,-50.22"/>
</g>
<!-- stone -->
<g id="node6" class="node">
<title>stone</title>
<ellipse fill="none" stroke="black" cx="177.54" cy="-95.93" rx="36.77" ry="19.98"/>
<text text-anchor="middle" x="177.54" y="-92.75" font-family="Comic Sans MS" font-size="14.00">stone</text>
</g>
<!-- wood pickaxe&#45;&gt;stone -->
<g id="edge7" class="edge">
<title>wood pickaxe&#45;&gt;stone</title>
<path fill="none" stroke="black" d="M177.54,-151.45C177.54,-143.98 177.54,-135.26 177.54,-127.01"/>
<polygon fill="black" stroke="black" points="181.04,-127.23 177.54,-117.23 174.04,-127.23 181.04,-127.23"/>
</g>
<!-- stone&#45;&gt;stone pickaxe -->
<g id="edge10" class="edge">
<title>stone&#45;&gt;stone pickaxe</title>
<path fill="none" stroke="black" d="M177.54,-75.5C177.54,-68.02 177.54,-59.31 177.54,-51.06"/>
<polygon fill="black" stroke="black" points="181.04,-51.28 177.54,-41.28 174.04,-51.28 181.04,-51.28"/>
</g>
</g>
</svg>
